<svg id="Cloud_Upload" data-name="Cloud Upload" xmlns="http://www.w3.org/2000/svg" viewBox="0 0 59.603 49.67">
  <defs>
    <style>
      .cls-1 {
        fill: #2c3e52;
      }
    </style>
  </defs>
  <path id="Cloud-Upload" class="cls-1" d="M28.56,31.349q-.039.035-.077.073L19.5,40.4a1.242,1.242,0,0,1-1.757-1.756l8.978-8.982a4.346,4.346,0,0,1,6.143,0l8.985,8.961A1.242,1.242,0,0,1,40.1,40.381L31.115,31.42q-.035-.035-.072-.068V54.427a1.242,1.242,0,0,1-2.483,0ZM44.293,18.516A13.669,13.669,0,0,1,59.6,32.076V32.9A14.9,14.9,0,0,1,46.083,47.738a1.242,1.242,0,0,1-.229-2.473A12.418,12.418,0,0,0,57.119,32.9v-.825A11.187,11.187,0,0,0,43.562,21.155a1.242,1.242,0,0,1-1.492-1.032A13.66,13.66,0,0,0,14.9,22.211a1.242,1.242,0,0,1-1.378,1.234,10.055,10.055,0,0,0-1.105-.061A9.934,9.934,0,0,0,2.483,33.32,11.976,11.976,0,0,0,13.854,45.279a1.242,1.242,0,0,1-.126,2.48A14.46,14.46,0,0,1,0,33.32,12.418,12.418,0,0,1,12.417,20.9a16.172,16.172,0,0,1,31.876-2.385Z" transform="translate(0 -6)"/>
</svg>
